<svg width="35" height="28" viewBox="0 0 35 28" fill="none" xmlns="http://www.w3.org/2000/svg">
<path d="M7.704 27.448C6.14667 27.448 4.856 27.128 3.832 26.488C2.808 25.848 2.04 24.9733 1.528 23.864C1.016 22.7333 0.76 21.432 0.76 19.96V8.344C0.76 6.82933 1.00533 5.50667 1.496 4.376C1.98667 3.224 2.744 2.328 3.768 1.688C4.792 1.048 6.104 0.727999 7.704 0.727999C9.28267 0.727999 10.5733 1.048 11.576 1.688C12.6 2.328 13.3573 3.224 13.848 4.376C14.3387 5.50667 14.584 6.82933 14.584 8.344V19.96C14.584 21.432 14.328 22.7333 13.816 23.864C13.304 24.9733 12.536 25.848 11.512 26.488C10.488 27.128 9.21867 27.448 7.704 27.448ZM7.704 23.096C8.28 23.096 8.696 22.9147 8.952 22.552C9.208 22.1893 9.37867 21.7627 9.464 21.272C9.54933 20.76 9.592 20.2907 9.592 19.864V8.44C9.592 7.97066 9.54933 7.48 9.464 6.968C9.4 6.456 9.24 6.01867 8.984 5.656C8.728 5.272 8.30133 5.08 7.704 5.08C7.10667 5.08 6.66933 5.272 6.392 5.656C6.136 6.01867 5.96533 6.456 5.88 6.968C5.816 7.48 5.784 7.97066 5.784 8.44V19.864C5.784 20.2907 5.82667 20.76 5.912 21.272C5.99733 21.7627 6.17867 22.1893 6.456 22.552C6.73333 22.9147 7.14933 23.096 7.704 23.096ZM20.887 27V6.2C20.695 6.30667 20.4283 6.424 20.087 6.552C19.767 6.65867 19.415 6.78667 19.031 6.936C18.647 7.064 18.2843 7.192 17.943 7.32C17.6017 7.42667 17.335 7.52267 17.143 7.608V3.96C17.399 3.832 17.7403 3.66133 18.167 3.448C18.615 3.23466 19.0843 3 19.575 2.744C20.0657 2.488 20.5243 2.21067 20.951 1.912C21.399 1.61333 21.7403 1.336 21.975 1.08H25.815V27H20.887ZM30.3478 27V22.296H34.9558V27H30.3478Z" fill="#F8F15A"/>
</svg>
