<svg width="39" height="28" viewBox="0 0 39 28" fill="none" xmlns="http://www.w3.org/2000/svg">
<path d="M7.704 27.448C6.14667 27.448 4.856 27.128 3.832 26.488C2.808 25.848 2.04 24.9733 1.528 23.864C1.016 22.7333 0.76 21.432 0.76 19.96V8.344C0.76 6.82933 1.00533 5.50667 1.496 4.376C1.98667 3.224 2.744 2.328 3.768 1.688C4.792 1.048 6.104 0.727999 7.704 0.727999C9.28267 0.727999 10.5733 1.048 11.576 1.688C12.6 2.328 13.3573 3.224 13.848 4.376C14.3387 5.50667 14.584 6.82933 14.584 8.344V19.96C14.584 21.432 14.328 22.7333 13.816 23.864C13.304 24.9733 12.536 25.848 11.512 26.488C10.488 27.128 9.21867 27.448 7.704 27.448ZM7.704 23.096C8.28 23.096 8.696 22.9147 8.952 22.552C9.208 22.1893 9.37867 21.7627 9.464 21.272C9.54933 20.76 9.592 20.2907 9.592 19.864V8.44C9.592 7.97066 9.54933 7.48 9.464 6.968C9.4 6.456 9.24 6.01867 8.984 5.656C8.728 5.272 8.30133 5.08 7.704 5.08C7.10667 5.08 6.66933 5.272 6.392 5.656C6.136 6.01867 5.96533 6.456 5.88 6.968C5.816 7.48 5.784 7.97066 5.784 8.44V19.864C5.784 20.2907 5.82667 20.76 5.912 21.272C5.99733 21.7627 6.17867 22.1893 6.456 22.552C6.73333 22.9147 7.14933 23.096 7.704 23.096ZM17.687 27V23.512L23.991 13.816C24.4603 13.0907 24.8977 12.3973 25.303 11.736C25.7297 11.0747 26.071 10.4027 26.327 9.72C26.6043 9.016 26.743 8.26933 26.743 7.48C26.743 6.648 26.583 6.01867 26.263 5.592C25.943 5.144 25.4843 4.92 24.887 4.92C24.247 4.92 23.7563 5.10133 23.415 5.464C23.0737 5.80533 22.839 6.264 22.711 6.84C22.583 7.416 22.519 8.04533 22.519 8.728V9.944H17.687V8.664C17.687 7.128 17.9217 5.76267 18.391 4.568C18.8817 3.37333 19.639 2.44533 20.663 1.784C21.7083 1.10133 23.0737 0.759998 24.759 0.759998C27.0417 0.759998 28.759 1.35733 29.911 2.552C31.063 3.74667 31.639 5.42133 31.639 7.576C31.639 8.62133 31.479 9.592 31.159 10.488C30.839 11.3627 30.4123 12.216 29.879 13.048C29.367 13.8587 28.8123 14.7013 28.215 15.576L23.223 23.096H30.935V27H17.687ZM34.0665 27V22.296H38.6745V27H34.0665Z" fill="#F8F15A"/>
</svg>
