<svg width="39" height="28" viewBox="0 0 39 28" fill="none" xmlns="http://www.w3.org/2000/svg">
<path d="M7.704 27.448C6.14667 27.448 4.856 27.128 3.832 26.488C2.808 25.848 2.04 24.9733 1.528 23.864C1.016 22.7333 0.76 21.432 0.76 19.96V8.344C0.76 6.82933 1.00533 5.50667 1.496 4.376C1.98667 3.224 2.744 2.328 3.768 1.688C4.792 1.048 6.104 0.727999 7.704 0.727999C9.28267 0.727999 10.5733 1.048 11.576 1.688C12.6 2.328 13.3573 3.224 13.848 4.376C14.3387 5.50667 14.584 6.82933 14.584 8.344V19.96C14.584 21.432 14.328 22.7333 13.816 23.864C13.304 24.9733 12.536 25.848 11.512 26.488C10.488 27.128 9.21867 27.448 7.704 27.448ZM7.704 23.096C8.28 23.096 8.696 22.9147 8.952 22.552C9.208 22.1893 9.37867 21.7627 9.464 21.272C9.54933 20.76 9.592 20.2907 9.592 19.864V8.44C9.592 7.97066 9.54933 7.48 9.464 6.968C9.4 6.456 9.24 6.01867 8.984 5.656C8.728 5.272 8.30133 5.08 7.704 5.08C7.10667 5.08 6.66933 5.272 6.392 5.656C6.136 6.01867 5.96533 6.456 5.88 6.968C5.816 7.48 5.784 7.97066 5.784 8.44V19.864C5.784 20.2907 5.82667 20.76 5.912 21.272C5.99733 21.7627 6.17867 22.1893 6.456 22.552C6.73333 22.9147 7.14933 23.096 7.704 23.096ZM24.567 27.448C22.839 27.448 21.463 27.128 20.439 26.488C19.4363 25.8267 18.711 24.9093 18.263 23.736C17.815 22.5413 17.591 21.176 17.591 19.64V18.712H22.519C22.519 18.7547 22.519 18.872 22.519 19.064C22.519 19.2347 22.519 19.4053 22.519 19.576C22.5403 20.408 22.6043 21.1013 22.711 21.656C22.839 22.1893 23.0523 22.5947 23.351 22.872C23.6497 23.1493 24.0763 23.288 24.631 23.288C25.207 23.288 25.6337 23.1493 25.911 22.872C26.1883 22.5733 26.3803 22.1467 26.487 21.592C26.5937 21.0373 26.647 20.3547 26.647 19.544C26.647 18.2427 26.455 17.24 26.071 16.536C25.687 15.8107 24.919 15.4373 23.767 15.416C23.7457 15.416 23.639 15.416 23.447 15.416C23.255 15.416 23.0737 15.416 22.903 15.416V11.768C23.031 11.768 23.159 11.768 23.287 11.768C23.4363 11.768 23.5643 11.768 23.671 11.768C24.823 11.768 25.6017 11.4587 26.007 10.84C26.4337 10.2213 26.647 9.25067 26.647 7.928C26.647 6.904 26.4977 6.104 26.199 5.528C25.9003 4.952 25.3457 4.664 24.535 4.664C23.7243 4.664 23.191 4.984 22.935 5.624C22.679 6.264 22.5403 7.08533 22.519 8.088C22.519 8.25867 22.519 8.45067 22.519 8.664C22.519 8.856 22.519 9.048 22.519 9.24H17.591V7.832C17.591 6.31733 17.8683 5.03733 18.423 3.992C18.9777 2.92533 19.767 2.11467 20.791 1.56C21.815 1.00533 23.063 0.727999 24.535 0.727999C26.007 0.727999 27.2657 0.994665 28.311 1.528C29.3563 2.06133 30.1457 2.84 30.679 3.864C31.2337 4.888 31.511 6.15733 31.511 7.672C31.511 9.18667 31.191 10.4453 30.551 11.448C29.9323 12.4507 29.1643 13.0907 28.247 13.368C28.887 13.5813 29.4523 13.9333 29.943 14.424C30.4337 14.9147 30.8177 15.576 31.095 16.408C31.3723 17.2187 31.511 18.232 31.511 19.448C31.511 21.0053 31.287 22.392 30.839 23.608C30.391 24.8027 29.655 25.7413 28.631 26.424C27.607 27.1067 26.2523 27.448 24.567 27.448ZM34.0665 27V22.296H38.6745V27H34.0665Z" fill="#F8F15A"/>
</svg>
