<svg width="39" height="28" viewBox="0 0 39 28" fill="none" xmlns="http://www.w3.org/2000/svg">
<path d="M7.704 27.448C6.14667 27.448 4.856 27.128 3.832 26.488C2.808 25.848 2.04 24.9733 1.528 23.864C1.016 22.7333 0.76 21.432 0.76 19.96V8.344C0.76 6.82933 1.00533 5.50667 1.496 4.376C1.98667 3.224 2.744 2.328 3.768 1.688C4.792 1.048 6.104 0.727999 7.704 0.727999C9.28267 0.727999 10.5733 1.048 11.576 1.688C12.6 2.328 13.3573 3.224 13.848 4.376C14.3387 5.50667 14.584 6.82933 14.584 8.344V19.96C14.584 21.432 14.328 22.7333 13.816 23.864C13.304 24.9733 12.536 25.848 11.512 26.488C10.488 27.128 9.21867 27.448 7.704 27.448ZM7.704 23.096C8.28 23.096 8.696 22.9147 8.952 22.552C9.208 22.1893 9.37867 21.7627 9.464 21.272C9.54933 20.76 9.592 20.2907 9.592 19.864V8.44C9.592 7.97066 9.54933 7.48 9.464 6.968C9.4 6.456 9.24 6.01867 8.984 5.656C8.728 5.272 8.30133 5.08 7.704 5.08C7.10667 5.08 6.66933 5.272 6.392 5.656C6.136 6.01867 5.96533 6.456 5.88 6.968C5.816 7.48 5.784 7.97066 5.784 8.44V19.864C5.784 20.2907 5.82667 20.76 5.912 21.272C5.99733 21.7627 6.17867 22.1893 6.456 22.552C6.73333 22.9147 7.14933 23.096 7.704 23.096ZM24.439 27.448C22.6257 27.448 21.239 27.1173 20.279 26.456C19.319 25.7947 18.6577 24.8667 18.295 23.672C17.9537 22.4773 17.783 21.08 17.783 19.48H22.551C22.551 20.4187 22.6043 21.208 22.711 21.848C22.839 22.488 23.0523 22.968 23.351 23.288C23.671 23.608 24.1403 23.7573 24.759 23.736C25.3777 23.7147 25.8257 23.48 26.103 23.032C26.3803 22.584 26.551 21.944 26.615 21.112C26.679 20.28 26.711 19.2987 26.711 18.168C26.711 17.2507 26.6577 16.44 26.551 15.736C26.4443 15.032 26.231 14.4773 25.911 14.072C25.6123 13.6667 25.143 13.464 24.503 13.464C23.927 13.464 23.447 13.6667 23.063 14.072C22.7003 14.4773 22.4337 15.0533 22.263 15.8H18.039L18.391 1.08H30.295V5.336H22.455L22.167 11.064C22.423 10.744 22.8497 10.4667 23.447 10.232C24.0657 9.99733 24.727 9.85867 25.431 9.816C26.775 9.688 27.8843 9.944 28.759 10.584C29.655 11.224 30.3163 12.1733 30.743 13.432C31.1697 14.6693 31.383 16.184 31.383 17.976C31.383 19.3413 31.2977 20.6107 31.127 21.784C30.9563 22.936 30.6257 23.9387 30.135 24.792C29.6443 25.624 28.9403 26.2747 28.023 26.744C27.1057 27.2133 25.911 27.448 24.439 27.448ZM33.9415 27V22.296H38.5495V27H33.9415Z" fill="#F8F15A"/>
</svg>
