<svg width="31" height="31" viewBox="0 0 31 31" fill="none" xmlns="http://www.w3.org/2000/svg">
<path d="M5.16671 25.8334C4.45629 25.8334 3.84834 25.5806 3.34287 25.0752C2.83654 24.5689 2.58337 23.9605 2.58337 23.2501V7.75008C2.58337 7.03966 2.83654 6.43172 3.34287 5.92625C3.84834 5.41991 4.45629 5.16675 5.16671 5.16675H25.8334C26.5438 5.16675 27.1522 5.41991 27.6585 5.92625C28.1639 6.43172 28.4167 7.03966 28.4167 7.75008V23.2501C28.4167 23.9605 28.1639 24.5689 27.6585 25.0752C27.1522 25.5806 26.5438 25.8334 25.8334 25.8334H5.16671ZM15.5 16.5657C15.6076 16.5657 15.7205 16.5493 15.8385 16.5166C15.9573 16.4847 16.0706 16.4365 16.1782 16.372L25.3167 10.6563C25.4889 10.5487 25.6181 10.4144 25.7042 10.2533C25.7904 10.0914 25.8334 9.91362 25.8334 9.71987C25.8334 9.28932 25.6503 8.96641 25.2844 8.75112C24.9185 8.53584 24.5417 8.54661 24.1542 8.78341L15.5 14.2084L6.84587 8.78341C6.45837 8.54661 6.08163 8.54101 5.71567 8.76662C5.3497 8.99309 5.16671 9.31084 5.16671 9.71987C5.16671 9.93515 5.20976 10.1233 5.29587 10.2843C5.38199 10.4462 5.51116 10.5702 5.68337 10.6563L14.8219 16.372C14.9295 16.4365 15.0428 16.4847 15.1616 16.5166C15.2796 16.5493 15.3924 16.5657 15.5 16.5657Z" fill="#F8F15A"/>
</svg>
