<svg width="35" height="16" viewBox="0 0 35 16" fill="none" xmlns="http://www.w3.org/2000/svg">
<path d="M9.90909 5.15625C9.80966 4.81061 9.66998 4.50521 9.49006 4.24006C9.31013 3.97017 9.08996 3.7429 8.82955 3.55824C8.57386 3.36884 8.2803 3.22443 7.94886 3.125C7.62216 3.02557 7.25994 2.97585 6.86222 2.97585C6.11884 2.97585 5.46544 3.16051 4.90199 3.52983C4.34328 3.89915 3.90767 4.43655 3.59517 5.14205C3.28267 5.8428 3.12642 6.69981 3.12642 7.71307C3.12642 8.72633 3.2803 9.58807 3.58807 10.2983C3.89583 11.0085 4.33144 11.5507 4.89489 11.9247C5.45833 12.294 6.12358 12.4787 6.89062 12.4787C7.58665 12.4787 8.18087 12.3556 8.6733 12.1094C9.17046 11.8584 9.54924 11.5057 9.80966 11.0511C10.0748 10.5966 10.2074 10.0592 10.2074 9.43892L10.8324 9.53125H7.08239V7.21591H13.169V9.0483C13.169 10.3267 12.8991 11.4252 12.3594 12.3438C11.8196 13.2576 11.0762 13.9631 10.1293 14.4602C9.18229 14.9527 8.09801 15.1989 6.87642 15.1989C5.51278 15.1989 4.31487 14.8982 3.28267 14.2969C2.25047 13.6908 1.44555 12.8314 0.867898 11.7188C0.294981 10.6013 0.00852273 9.27557 0.00852273 7.74148C0.00852273 6.5625 0.178977 5.51136 0.519886 4.58807C0.86553 3.66004 1.34848 2.87405 1.96875 2.23011C2.58902 1.58617 3.31108 1.09612 4.13494 0.759943C4.95881 0.423768 5.85133 0.255681 6.8125 0.255681C7.63636 0.255681 8.40341 0.37642 9.11364 0.617898C9.82386 0.85464 10.4536 1.19081 11.0028 1.62642C11.5568 2.06203 12.009 2.58049 12.3594 3.18182C12.7098 3.77841 12.9347 4.43655 13.0341 5.15625H9.90909ZM18.7532 15L14.5913 0.454545H17.9506L20.3583 10.5611H20.479L23.1353 0.454545H26.0117L28.6609 10.5824H28.7887L31.1964 0.454545H34.5558L30.3938 15H27.3967L24.6268 5.49006H24.5131L21.7504 15H18.7532Z" fill="white"/>
</svg>
