<svg width="58" height="41" viewBox="0 0 58 41" fill="none" xmlns="http://www.w3.org/2000/svg">
<path d="M11.056 40.672C8.72 40.672 6.784 40.192 5.248 39.232C3.712 38.272 2.56 36.96 1.792 35.296C1.024 33.6 0.64 31.648 0.64 29.44V12.016C0.64 9.744 1.008 7.76 1.744 6.064C2.48 4.336 3.616 2.992 5.152 2.032C6.688 1.072 8.656 0.591998 11.056 0.591998C13.424 0.591998 15.36 1.072 16.864 2.032C18.4 2.992 19.536 4.336 20.272 6.064C21.008 7.76 21.376 9.744 21.376 12.016V29.44C21.376 31.648 20.992 33.6 20.224 35.296C19.456 36.96 18.304 38.272 16.768 39.232C15.232 40.192 13.328 40.672 11.056 40.672ZM11.056 34.144C11.92 34.144 12.544 33.872 12.928 33.328C13.312 32.784 13.568 32.144 13.696 31.408C13.824 30.64 13.888 29.936 13.888 29.296V12.16C13.888 11.456 13.824 10.72 13.696 9.952C13.6 9.184 13.36 8.528 12.976 7.984C12.592 7.408 11.952 7.12 11.056 7.12C10.16 7.12 9.504 7.408 9.088 7.984C8.704 8.528 8.448 9.184 8.32 9.952C8.224 10.72 8.176 11.456 8.176 12.16V29.296C8.176 29.936 8.24 30.64 8.368 31.408C8.496 32.144 8.768 32.784 9.184 33.328C9.6 33.872 10.224 34.144 11.056 34.144ZM26.0305 40V34.768L35.4865 20.224C36.1905 19.136 36.8465 18.096 37.4545 17.104C38.0945 16.112 38.6065 15.104 38.9905 14.08C39.4065 13.024 39.6145 11.904 39.6145 10.72C39.6145 9.472 39.3745 8.528 38.8945 7.888C38.4145 7.216 37.7265 6.88 36.8305 6.88C35.8705 6.88 35.1345 7.152 34.6225 7.696C34.1105 8.208 33.7585 8.896 33.5665 9.76C33.3745 10.624 33.2785 11.568 33.2785 12.592V14.416H26.0305V12.496C26.0305 10.192 26.3825 8.144 27.0865 6.352C27.8225 4.56 28.9585 3.168 30.4945 2.176C32.0625 1.152 34.1105 0.639997 36.6385 0.639997C40.0625 0.639997 42.6385 1.536 44.3665 3.328C46.0945 5.12 46.9585 7.632 46.9585 10.864C46.9585 12.432 46.7185 13.888 46.2385 15.232C45.7585 16.544 45.1185 17.824 44.3185 19.072C43.5505 20.288 42.7185 21.552 41.8225 22.864L34.3345 34.144H45.9025V40H26.0305ZM50.5998 40V32.944H57.5118V40H50.5998Z" fill="#F8F15A"/>
</svg>
