<svg width="58" height="41" viewBox="0 0 58 41" fill="none" xmlns="http://www.w3.org/2000/svg">
<path d="M11.056 40.672C8.72 40.672 6.784 40.192 5.248 39.232C3.712 38.272 2.56 36.96 1.792 35.296C1.024 33.6 0.64 31.648 0.64 29.44V12.016C0.64 9.744 1.008 7.76 1.744 6.064C2.48 4.336 3.616 2.992 5.152 2.032C6.688 1.072 8.656 0.591998 11.056 0.591998C13.424 0.591998 15.36 1.072 16.864 2.032C18.4 2.992 19.536 4.336 20.272 6.064C21.008 7.76 21.376 9.744 21.376 12.016V29.44C21.376 31.648 20.992 33.6 20.224 35.296C19.456 36.96 18.304 38.272 16.768 39.232C15.232 40.192 13.328 40.672 11.056 40.672ZM11.056 34.144C11.92 34.144 12.544 33.872 12.928 33.328C13.312 32.784 13.568 32.144 13.696 31.408C13.824 30.64 13.888 29.936 13.888 29.296V12.16C13.888 11.456 13.824 10.72 13.696 9.952C13.6 9.184 13.36 8.528 12.976 7.984C12.592 7.408 11.952 7.12 11.056 7.12C10.16 7.12 9.504 7.408 9.088 7.984C8.704 8.528 8.448 9.184 8.32 9.952C8.224 10.72 8.176 11.456 8.176 12.16V29.296C8.176 29.936 8.24 30.64 8.368 31.408C8.496 32.144 8.768 32.784 9.184 33.328C9.6 33.872 10.224 34.144 11.056 34.144ZM36.3505 40.672C33.7585 40.672 31.6945 40.192 30.1585 39.232C28.6545 38.24 27.5665 36.864 26.8945 35.104C26.2225 33.312 25.8865 31.264 25.8865 28.96V27.568H33.2785C33.2785 27.632 33.2785 27.808 33.2785 28.096C33.2785 28.352 33.2785 28.608 33.2785 28.864C33.3105 30.112 33.4065 31.152 33.5665 31.984C33.7585 32.784 34.0785 33.392 34.5265 33.808C34.9745 34.224 35.6145 34.432 36.4465 34.432C37.3105 34.432 37.9505 34.224 38.3665 33.808C38.7825 33.36 39.0705 32.72 39.2305 31.888C39.3905 31.056 39.4705 30.032 39.4705 28.816C39.4705 26.864 39.1825 25.36 38.6065 24.304C38.0305 23.216 36.8785 22.656 35.1505 22.624C35.1185 22.624 34.9585 22.624 34.6705 22.624C34.3825 22.624 34.1105 22.624 33.8545 22.624V17.152C34.0465 17.152 34.2385 17.152 34.4305 17.152C34.6545 17.152 34.8465 17.152 35.0065 17.152C36.7345 17.152 37.9025 16.688 38.5105 15.76C39.1505 14.832 39.4705 13.376 39.4705 11.392C39.4705 9.856 39.2465 8.656 38.7985 7.792C38.3505 6.928 37.5185 6.496 36.3025 6.496C35.0865 6.496 34.2865 6.976 33.9025 7.936C33.5185 8.896 33.3105 10.128 33.2785 11.632C33.2785 11.888 33.2785 12.176 33.2785 12.496C33.2785 12.784 33.2785 13.072 33.2785 13.36H25.8865V11.248C25.8865 8.976 26.3025 7.056 27.1345 5.488C27.9665 3.888 29.1505 2.672 30.6865 1.84C32.2225 1.008 34.0945 0.591998 36.3025 0.591998C38.5105 0.591998 40.3985 0.991998 41.9665 1.792C43.5345 2.592 44.7185 3.76 45.5185 5.296C46.3505 6.832 46.7665 8.736 46.7665 11.008C46.7665 13.28 46.2865 15.168 45.3265 16.672C44.3985 18.176 43.2465 19.136 41.8705 19.552C42.8305 19.872 43.6785 20.4 44.4145 21.136C45.1505 21.872 45.7265 22.864 46.1425 24.112C46.5585 25.328 46.7665 26.848 46.7665 28.672C46.7665 31.008 46.4305 33.088 45.7585 34.912C45.0865 36.704 43.9825 38.112 42.4465 39.136C40.9105 40.16 38.8785 40.672 36.3505 40.672ZM50.5998 40V32.944H57.5118V40H50.5998Z" fill="#F8F15A"/>
</svg>
