<svg width="58" height="41" viewBox="0 0 58 41" fill="none" xmlns="http://www.w3.org/2000/svg">
<path d="M11.056 40.672C8.72 40.672 6.784 40.192 5.248 39.232C3.712 38.272 2.56 36.96 1.792 35.296C1.024 33.6 0.64 31.648 0.64 29.44V12.016C0.64 9.744 1.008 7.76 1.744 6.064C2.48 4.336 3.616 2.992 5.152 2.032C6.688 1.072 8.656 0.591998 11.056 0.591998C13.424 0.591998 15.36 1.072 16.864 2.032C18.4 2.992 19.536 4.336 20.272 6.064C21.008 7.76 21.376 9.744 21.376 12.016V29.44C21.376 31.648 20.992 33.6 20.224 35.296C19.456 36.96 18.304 38.272 16.768 39.232C15.232 40.192 13.328 40.672 11.056 40.672ZM11.056 34.144C11.92 34.144 12.544 33.872 12.928 33.328C13.312 32.784 13.568 32.144 13.696 31.408C13.824 30.64 13.888 29.936 13.888 29.296V12.16C13.888 11.456 13.824 10.72 13.696 9.952C13.6 9.184 13.36 8.528 12.976 7.984C12.592 7.408 11.952 7.12 11.056 7.12C10.16 7.12 9.504 7.408 9.088 7.984C8.704 8.528 8.448 9.184 8.32 9.952C8.224 10.72 8.176 11.456 8.176 12.16V29.296C8.176 29.936 8.24 30.64 8.368 31.408C8.496 32.144 8.768 32.784 9.184 33.328C9.6 33.872 10.224 34.144 11.056 34.144ZM37.2145 40V30.928H25.4065V25.12L35.5345 1.12H44.1745V25.264H47.9185V30.928H44.1745V40H37.2145ZM31.2625 25.264H37.2145V8.752L31.2625 25.264ZM51.0216 40V32.944H57.9336V40H51.0216Z" fill="#F8F15A"/>
</svg>
