<svg width="58" height="41" viewBox="0 0 58 41" fill="none" xmlns="http://www.w3.org/2000/svg">
<path d="M11.056 40.672C8.72 40.672 6.784 40.192 5.248 39.232C3.712 38.272 2.56 36.96 1.792 35.296C1.024 33.6 0.64 31.648 0.64 29.44V12.016C0.64 9.744 1.008 7.76 1.744 6.064C2.48 4.336 3.616 2.992 5.152 2.032C6.688 1.072 8.656 0.591998 11.056 0.591998C13.424 0.591998 15.36 1.072 16.864 2.032C18.4 2.992 19.536 4.336 20.272 6.064C21.008 7.76 21.376 9.744 21.376 12.016V29.44C21.376 31.648 20.992 33.6 20.224 35.296C19.456 36.96 18.304 38.272 16.768 39.232C15.232 40.192 13.328 40.672 11.056 40.672ZM11.056 34.144C11.92 34.144 12.544 33.872 12.928 33.328C13.312 32.784 13.568 32.144 13.696 31.408C13.824 30.64 13.888 29.936 13.888 29.296V12.16C13.888 11.456 13.824 10.72 13.696 9.952C13.6 9.184 13.36 8.528 12.976 7.984C12.592 7.408 11.952 7.12 11.056 7.12C10.16 7.12 9.504 7.408 9.088 7.984C8.704 8.528 8.448 9.184 8.32 9.952C8.224 10.72 8.176 11.456 8.176 12.16V29.296C8.176 29.936 8.24 30.64 8.368 31.408C8.496 32.144 8.768 32.784 9.184 33.328C9.6 33.872 10.224 34.144 11.056 34.144ZM36.1585 40.672C33.4385 40.672 31.3585 40.176 29.9185 39.184C28.4785 38.192 27.4865 36.8 26.9425 35.008C26.4305 33.216 26.1745 31.12 26.1745 28.72H33.3265C33.3265 30.128 33.4065 31.312 33.5665 32.272C33.7585 33.232 34.0785 33.952 34.5265 34.432C35.0065 34.912 35.7105 35.136 36.6385 35.104C37.5665 35.072 38.2385 34.72 38.6545 34.048C39.0705 33.376 39.3265 32.416 39.4225 31.168C39.5185 29.92 39.5665 28.448 39.5665 26.752C39.5665 25.376 39.4865 24.16 39.3265 23.104C39.1665 22.048 38.8465 21.216 38.3665 20.608C37.9185 20 37.2145 19.696 36.2545 19.696C35.3905 19.696 34.6705 20 34.0945 20.608C33.5505 21.216 33.1505 22.08 32.8945 23.2H26.5585L27.0865 1.12H44.9425V7.504H33.1825L32.7505 16.096C33.1345 15.616 33.7745 15.2 34.6705 14.848C35.5985 14.496 36.5905 14.288 37.6465 14.224C39.6625 14.032 41.3265 14.416 42.6385 15.376C43.9825 16.336 44.9745 17.76 45.6145 19.648C46.2545 21.504 46.5745 23.776 46.5745 26.464C46.5745 28.512 46.4465 30.416 46.1905 32.176C45.9345 33.904 45.4385 35.408 44.7025 36.688C43.9665 37.936 42.9105 38.912 41.5345 39.616C40.1585 40.32 38.3665 40.672 36.1585 40.672ZM50.4123 40V32.944H57.3243V40H50.4123Z" fill="#F8F15A"/>
</svg>
