<svg width="1330" height="1012" viewBox="0 0 1330 1012" fill="none" xmlns="http://www.w3.org/2000/svg">
<g clip-path="url(#clip0_203_73)">
<path d="M766.09 593.033L752.029 616.689H483.684L497.304 593.033L511.131 568.986L604.03 407.405L617.857 431.452L538.785 568.986L524.958 593.033H766.09Z" stroke="#FFF2C5" stroke-opacity="0.45" stroke-miterlimit="10"/>
<path d="M617.856 431.451L696.928 568.985H538.785L617.856 431.451Z" stroke="#FFF2C5" stroke-opacity="0.45" stroke-miterlimit="10"/>
<path d="M766.089 593.033H524.958L538.785 568.986H724.582L631.684 407.405L617.856 383.358L604.081 359.363L604.107 359.311H631.684L645.511 383.358L752.262 568.986L766.089 593.033Z" stroke="#FFF2C5" stroke-opacity="0.45" stroke-miterlimit="10"/>
<path d="M724.582 568.986H696.928L617.857 431.452L604.03 407.405L511.131 568.986L497.304 593.032L483.684 616.689L469.753 593.032L483.58 568.986L590.228 383.436L604.081 359.363L617.857 383.358L631.684 407.405L724.582 568.986Z" stroke="#FFF2C5" stroke-opacity="0.45" stroke-miterlimit="10"/>
<path d="M315.787 564L343.44 664.647" stroke="#FFF2C5" stroke-opacity="0.45" stroke-width="0.25" stroke-miterlimit="10"/>
<rect x="462.777" y="359.5" width="315" height="305" stroke="white" stroke-opacity="0.26"/>
<rect x="390.962" y="578.062" width="343.668" height="332.761" transform="rotate(-59.2584 390.962 578.062)" stroke="white" stroke-opacity="0.26"/>
<rect x="389.354" y="451.466" width="342.059" height="332.761" transform="rotate(-29.9524 389.354 451.466)" stroke="white" stroke-opacity="0.26"/>
</g>
<path opacity="0.75" d="M727.909 52.5665V51.0115" stroke="#FFF2C5" stroke-opacity="0.45" stroke-miterlimit="10"/>
<path d="M793.848 833.404H793.658" stroke="#FFF2C5" stroke-opacity="0.45" stroke-miterlimit="10"/>
<path d="M809.488 824.116L809.258 824.265" stroke="#FFF2C5" stroke-opacity="0.45" stroke-miterlimit="10"/>
<path d="M725.922 862.403C747.468 855.819 768.337 847.136 788.238 836.472" stroke="#FFF2C5" stroke-opacity="0.45" stroke-miterlimit="10"/>
<path d="M636.298 877.343C658.636 876.591 680.853 873.678 702.648 868.644" stroke="#FFF2C5" stroke-opacity="0.45" stroke-miterlimit="10"/>
<path d="M416.374 231.454C357.296 275.373 313.169 336.907 290.135 407.49C267.101 478.074 266.306 554.195 287.86 625.259C309.415 696.323 352.246 758.793 410.393 803.976C468.54 849.158 539.109 874.804 612.278 877.344" stroke="#FFF2C5" stroke-opacity="0.45" stroke-miterlimit="10"/>
<path d="M473.475 196.887C460.661 203.045 448.225 209.985 436.235 217.669" stroke="#FFF2C5" stroke-opacity="0.45" stroke-miterlimit="10"/>
<path d="M549.901 170.452C533.357 174.067 517.094 178.899 501.24 184.909" stroke="#FFF2C5" stroke-opacity="0.45" stroke-miterlimit="10"/>
<path d="M885.187 760.046C900.714 742.638 914.525 723.727 926.42 703.583L940.902 676.665C968.902 618.203 980.687 553.097 974.99 488.343C969.294 423.589 946.332 361.636 908.571 309.142C870.811 256.648 819.681 215.598 760.675 190.403C701.669 165.208 637.019 156.821 573.672 166.144" stroke="#FFF2C5" stroke-opacity="0.45" stroke-miterlimit="10"/>
<path d="M814.451 820.986C833.804 808.348 851.896 793.822 868.47 777.614" stroke="#FFF2C5" stroke-opacity="0.45" stroke-miterlimit="10"/>
<path d="M888.89 510.471C888.89 583.478 860.335 653.496 809.508 705.12C758.681 756.744 689.744 785.746 617.864 785.746C258.206 771.247 258.309 249.421 617.864 234.964C689.757 234.992 758.697 264.02 809.522 315.666C860.347 367.311 888.895 437.345 888.89 510.366V510.471Z" stroke="#FFF2C5" stroke-opacity="0.45" stroke-miterlimit="10" stroke-dasharray="9.98 14.97"/>
<path d="M618.319 753.805C751.309 753.805 859.118 644.305 859.118 509.23C859.118 374.155 751.309 264.655 618.319 264.655C485.329 264.655 377.52 374.155 377.52 509.23C377.52 644.305 485.329 753.805 618.319 753.805Z" stroke="#FFF2C5" stroke-opacity="0.45" stroke-miterlimit="10"/>
<path d="M618.195 1010.65C890.048 1010.65 1110.43 786.816 1110.43 510.701C1110.43 234.586 890.048 10.75 618.195 10.75C346.342 10.75 125.962 234.586 125.962 510.701C125.962 786.816 346.342 1010.65 618.195 1010.65Z" stroke="#FFF2C5" stroke-opacity="0.45" stroke-miterlimit="10"/>
<path d="M1184.45 393.761C1204.18 494.032 1197.99 597.784 1166.5 694.904" stroke="#FFF2C5" stroke-opacity="0.45" stroke-miterlimit="10"/>
<path d="M1044.68 114.052C1105.73 181.886 1150.22 263.347 1174.56 351.861" stroke="#FFF2C5" stroke-opacity="0.45" stroke-miterlimit="10"/>
<path d="M40.3508 548.841C39.5232 535.981 39.1094 523.015 39.1094 509.945C39.0118 429.732 55.145 350.355 86.508 276.738" stroke="#FFF2C5" stroke-opacity="0.45" stroke-miterlimit="10"/>
<path d="M147.768 852.758C94.2673 777.378 59.2373 690.127 45.5852 598.243" stroke="#FFF2C5" stroke-opacity="0.45" stroke-miterlimit="10"/>
<path d="M18.896 548.273C18.1512 535.848 17.7788 523.324 17.7788 510.701C17.7644 480.927 19.8872 451.191 24.1304 421.731" stroke="#FFF2C5" stroke-opacity="0.45" stroke-miterlimit="10"/>
<path d="M70.0807 760.046C47.9766 710.008 32.6648 657.153 24.5649 602.929" stroke="#FFF2C5" stroke-opacity="0.45" stroke-miterlimit="10"/>
<path d="M1207.42 392.857C1214.88 431.68 1218.63 471.145 1218.61 510.701C1218.61 527.974 1217.92 545.065 1216.54 561.973" stroke="#FFF2C5" stroke-opacity="0.45" stroke-miterlimit="10"/>
<path d="M1135.28 200.563C1161.18 244.995 1181.39 292.604 1195.42 342.236" stroke="#FFF2C5" stroke-opacity="0.45" stroke-miterlimit="10"/>
<path d="M950.378 70.6379C1050.16 148.389 1120.42 258.783 1149.25 383.12C1178.08 507.458 1163.71 638.094 1108.57 752.901" stroke="#FFF2C5" stroke-opacity="0.45" stroke-miterlimit="10"/>
<path d="M256.882 923.383C158.321 834.331 94.9115 711.988 78.4182 579.055C61.925 446.123 93.4684 311.626 167.195 200.522" stroke="#FFF2C5" stroke-opacity="0.45" stroke-miterlimit="10"/>
<path d="M993.018 1C1082.54 68.9908 1152.59 160.004 1195.94 264.655" stroke="#FFF2C5" stroke-opacity="0.45" stroke-miterlimit="10"/>
<path d="M195.332 979.994C106.715 897.707 43.2581 791.277 12.5237 673.387" stroke="#FFF2C5" stroke-opacity="0.45" stroke-miterlimit="10"/>
<path d="M29.1991 603.581C44.7731 603.581 57.3983 590.758 57.3983 574.939C57.3983 559.121 44.7731 546.298 29.1991 546.298C13.6252 546.298 1 559.121 1 574.939C1 590.758 13.6252 603.581 29.1991 603.581Z" stroke="#FFF2C5" stroke-opacity="0.45" stroke-miterlimit="10"/>
<path d="M1194.98 396.178C1209.71 396.178 1221.65 384.051 1221.65 369.092C1221.65 354.133 1209.71 342.006 1194.98 342.006C1180.26 342.006 1168.32 354.133 1168.32 369.092C1168.32 384.051 1180.26 396.178 1194.98 396.178Z" stroke="#FFF2C5" stroke-opacity="0.45" stroke-miterlimit="10"/>
<path d="M29.1994 585.004C34.6726 585.004 39.1094 580.497 39.1094 574.938C39.1094 569.38 34.6726 564.873 29.1994 564.873C23.7262 564.873 19.2894 569.38 19.2894 574.938C19.2894 580.497 23.7262 585.004 29.1994 585.004Z" stroke="#FFF2C5" stroke-opacity="0.45" stroke-miterlimit="10"/>
<path d="M1194.98 379.157C1200.46 379.157 1204.89 374.651 1204.89 369.092C1204.89 363.533 1200.46 359.026 1194.98 359.026C1189.51 359.026 1185.07 363.533 1185.07 369.092C1185.07 374.651 1189.51 379.157 1194.98 379.157Z" stroke="#FFF2C5" stroke-opacity="0.45" stroke-miterlimit="10"/>
<path d="M714.192 877.532C720.922 877.532 726.378 871.991 726.378 865.156C726.378 858.32 720.922 852.779 714.192 852.779C707.462 852.779 702.006 858.32 702.006 865.156C702.006 871.991 707.462 877.532 714.192 877.532Z" stroke="#FFF2C5" stroke-opacity="0.45" stroke-miterlimit="10"/>
<path d="M714.192 869.757C716.694 869.757 718.723 867.697 718.723 865.155C718.723 862.614 716.694 860.553 714.192 860.553C711.689 860.553 709.661 862.614 709.661 865.155C709.661 867.697 711.689 869.757 714.192 869.757Z" stroke="#FFF2C5" stroke-opacity="0.45" stroke-miterlimit="10"/>
<path d="M426.18 236.75C432.91 236.75 438.366 231.209 438.366 224.373C438.366 217.537 432.91 211.996 426.18 211.996C419.45 211.996 413.994 217.537 413.994 224.373C413.994 231.209 419.45 236.75 426.18 236.75Z" stroke="#FFF2C5" stroke-opacity="0.45" stroke-miterlimit="10"/>
<path d="M426.18 228.974C428.682 228.974 430.711 226.914 430.711 224.372C430.711 221.83 428.682 219.77 426.18 219.77C423.678 219.77 421.649 221.83 421.649 224.372C421.649 226.914 423.678 228.974 426.18 228.974Z" stroke="#FFF2C5" stroke-opacity="0.45" stroke-miterlimit="10"/>
<path d="M561.817 181.022C568.548 181.022 574.003 175.48 574.003 168.645C574.003 161.809 568.548 156.268 561.817 156.268C555.087 156.268 549.632 161.809 549.632 168.645C549.632 175.48 555.087 181.022 561.817 181.022Z" stroke="#FFF2C5" stroke-opacity="0.45" stroke-miterlimit="10"/>
<path d="M561.818 173.247C564.32 173.247 566.348 171.186 566.348 168.645C566.348 166.103 564.32 164.043 561.818 164.043C559.315 164.043 557.287 166.103 557.287 168.645C557.287 171.186 559.315 173.247 561.818 173.247Z" stroke="#FFF2C5" stroke-opacity="0.45" stroke-miterlimit="10"/>
<path d="M624.298 889.91C631.028 889.91 636.484 884.368 636.484 877.533C636.484 870.697 631.028 865.156 624.298 865.156C617.568 865.156 612.112 870.697 612.112 877.533C612.112 884.368 617.568 889.91 624.298 889.91Z" stroke="#FFF2C5" stroke-opacity="0.45" stroke-miterlimit="10"/>
<path d="M624.298 882.134C626.801 882.134 628.829 880.074 628.829 877.532C628.829 874.99 626.801 872.93 624.298 872.93C621.796 872.93 619.767 874.99 619.767 877.532C619.767 880.074 621.796 882.134 624.298 882.134Z" stroke="#FFF2C5" stroke-opacity="0.45" stroke-miterlimit="10"/>
<path d="M868.346 777.655C866.424 775.578 865.266 772.891 865.066 770.047C864.867 767.204 865.638 764.377 867.251 762.044C868.863 759.71 871.218 758.012 873.919 757.236C876.62 756.46 879.501 756.653 882.079 757.783C884.656 758.912 886.771 760.91 888.068 763.438C889.364 765.966 889.764 768.871 889.198 771.664C888.633 774.456 887.137 776.965 884.963 778.768C882.789 780.572 880.07 781.559 877.263 781.564C875.593 781.566 873.94 781.22 872.406 780.547C870.872 779.875 869.491 778.891 868.346 777.655Z" stroke="#FFF2C5" stroke-opacity="0.45" stroke-miterlimit="10"/>
<path d="M877.263 773.789C879.765 773.789 881.794 771.728 881.794 769.187C881.794 766.645 879.765 764.585 877.263 764.585C874.76 764.585 872.732 766.645 872.732 769.187C872.732 771.728 874.76 773.789 877.263 773.789Z" stroke="#FFF2C5" stroke-opacity="0.45" stroke-miterlimit="10"/>
<path d="M801.065 837.291C806.116 837.291 810.21 833.133 810.21 828.003C810.21 822.874 806.116 818.715 801.065 818.715C796.015 818.715 791.921 822.874 791.921 828.003C791.921 833.133 796.015 837.291 801.065 837.291Z" stroke="#FFF2C5" stroke-opacity="0.45" stroke-miterlimit="10"/>
<path d="M815.899 831.03C815.101 835.046 812.766 838.577 809.406 840.846C806.047 843.116 801.939 843.938 797.983 843.134C778.37 838.363 784.059 809.512 803.982 812.832C807.937 813.643 811.413 816.015 813.648 819.427C815.882 822.839 816.692 827.012 815.899 831.03Z" stroke="#FFF2C5" stroke-opacity="0.45" stroke-miterlimit="10" stroke-dasharray="3.85 3.85"/>
<path d="M487.13 199.598C492.18 199.598 496.275 195.439 496.275 190.31C496.275 185.18 492.18 181.022 487.13 181.022C482.08 181.022 477.985 185.18 477.985 190.31C477.985 195.439 482.08 199.598 487.13 199.598Z" stroke="#FFF2C5" stroke-opacity="0.45" stroke-miterlimit="10"/>
<path d="M501.426 184.846C501.918 186.198 502.224 187.612 502.336 189.049" stroke="#FFF2C5" stroke-opacity="0.45" stroke-miterlimit="10"/>
<path d="M500.95 196.887C499.618 199.803 497.424 202.224 494.672 203.813C491.92 205.402 488.749 206.079 485.601 205.751C482.452 205.422 479.483 204.103 477.108 201.979C474.732 199.854 473.068 197.03 472.348 193.9C471.629 190.769 471.888 187.488 473.092 184.515C474.295 181.542 476.382 179.024 479.061 177.312C481.741 175.601 484.879 174.781 488.039 174.968C491.199 175.155 494.222 176.338 496.689 178.353" stroke="#FFF2C5" stroke-opacity="0.45" stroke-miterlimit="10" stroke-dasharray="3.83 3.83"/>
<path d="M499.357 181.169C500.164 182.305 500.825 183.54 501.323 184.846" stroke="#FFF2C5" stroke-opacity="0.45" stroke-miterlimit="10"/>
<path d="M996.508 387.595L924.303 262.565" stroke="#FFF2C5" stroke-opacity="0.45" stroke-miterlimit="10"/>
<path d="M938.681 842.733L999.255 773.177" stroke="#FFF2C5" stroke-opacity="0.45" stroke-miterlimit="10"/>
<path opacity="0.25" d="M619.726 935.592C851.598 935.592 1039.57 744.675 1039.57 509.167C1039.57 273.659 851.598 82.7419 619.726 82.7419C387.853 82.7419 199.884 273.659 199.884 509.167C199.884 744.675 387.853 935.592 619.726 935.592Z" stroke="#FFF2C5" stroke-opacity="0.45" stroke-miterlimit="10"/>
<path d="M786.934 947.949C784.059 949.084 781.141 950.197 778.245 951.29" stroke="#FFF2C5" stroke-opacity="0.45" stroke-miterlimit="10"/>
<path d="M760.701 957.447C715.383 972.235 668.07 979.743 620.471 979.7C385.568 979.7 191.898 799.594 166.264 567.9" stroke="#FFF2C5" stroke-opacity="0.45" stroke-miterlimit="10" stroke-dasharray="8.99 8.99"/>
<path d="M165.249 558.485C164.96 555.333 164.712 552.181 164.484 549.05" stroke="#FFF2C5" stroke-opacity="0.45" stroke-miterlimit="10"/>
<path d="M354.306 137.776C356.83 135.941 359.368 134.134 361.92 132.354" stroke="#FFF2C5" stroke-opacity="0.45" stroke-miterlimit="10"/>
<path d="M377.292 122.016C431.696 87.3568 492.676 64.7209 556.262 55.5808C619.849 46.4408 684.618 51.0014 746.354 68.9659C808.091 86.9305 865.411 117.896 914.586 159.849C963.761 201.801 1003.69 253.799 1031.77 312.46" stroke="#FFF2C5" stroke-opacity="0.45" stroke-miterlimit="10" stroke-dasharray="8.94 8.94"/>
<path d="M1035.74 320.867C1037.04 323.725 1038.31 326.603 1039.55 329.482" stroke="#FFF2C5" stroke-opacity="0.45" stroke-miterlimit="10"/>
<defs>
<clipPath id="clip0_203_73">
<rect width="1042.72" height="974" fill="white" transform="translate(287.277 1)"/>
</clipPath>
</defs>
</svg>
