<svg width="301" height="260" viewBox="0 0 301 260" fill="none" xmlns="http://www.w3.org/2000/svg">
<path d="M299.695 235.033L285.55 258.689H15.5897L29.2913 235.033L43.2017 210.986L136.66 49.4048L150.57 73.4517L71.0225 210.986L57.112 235.033H299.695Z" stroke="#FFF2C5" stroke-opacity="0.45" stroke-miterlimit="10"/>
<path d="M150.57 73.4512L230.117 210.985H71.0222L150.57 73.4512Z" stroke="#FFF2C5" stroke-opacity="0.45" stroke-miterlimit="10"/>
<path d="M299.695 235.033H57.1118L71.0222 210.986H257.938L164.48 49.4047L150.57 25.3578L136.711 1.36291L136.738 1.31079H164.48L178.39 25.3578L285.785 210.986L299.695 235.033Z" stroke="#FFF2C5" stroke-opacity="0.45" stroke-miterlimit="10"/>
<path d="M257.938 210.986H230.117L150.57 73.4515L136.66 49.4046L43.2017 210.986L29.2913 235.032L15.5897 258.689L1.57495 235.032L15.4853 210.986L122.775 25.4358L136.712 1.36279L150.57 25.3577L164.48 49.4046L257.938 210.986Z" stroke="#FFF2C5" stroke-opacity="0.45" stroke-miterlimit="10"/>
</svg>
